<?xml version="1.0" encoding="UTF-8" standalone="no"?>
<!DOCTYPE svg PUBLIC "-//W3C//DTD SVG 1.1//EN"
 "http://www.w3.org/Graphics/SVG/1.1/DTD/svg11.dtd">
<!-- Generated by graphviz version 2.38.0 (20140413.2041)
 -->
<!-- Title: G Pages: 1 -->
<svg width="672pt" height="300pt"
 viewBox="0.00 0.00 672.16 300.00" xmlns="http://www.w3.org/2000/svg" xmlns:xlink="http://www.w3.org/1999/xlink">
<g id="graph0" class="graph" transform="scale(1 1) rotate(0) translate(4 296)">
<title>G</title>
<polygon fill="white" stroke="none" points="-4,4 -4,-296 668.16,-296 668.16,4 -4,4"/>
<g id="clust1" class="cluster"><title>cluster_Global</title>
<path fill="none" stroke="gray" d="M449.538,-8C449.538,-8 644.16,-8 644.16,-8 650.16,-8 656.16,-14 656.16,-20 656.16,-20 656.16,-272 656.16,-272 656.16,-278 650.16,-284 644.16,-284 644.16,-284 449.538,-284 449.538,-284 443.538,-284 437.538,-278 437.538,-272 437.538,-272 437.538,-20 437.538,-20 437.538,-14 443.538,-8 449.538,-8"/>
<text text-anchor="middle" x="546.849" y="-271.2" font-family="Times,serif" font-size="11.00" fill="gray">Global</text>
</g>
<g id="clust2" class="cluster"><title>cluster_\Bobbyshaw</title>
<path fill="none" stroke="gray" d="M457.538,-16C457.538,-16 636.16,-16 636.16,-16 642.16,-16 648.16,-22 648.16,-28 648.16,-28 648.16,-245 648.16,-245 648.16,-251 642.16,-257 636.16,-257 636.16,-257 457.538,-257 457.538,-257 451.538,-257 445.538,-251 445.538,-245 445.538,-245 445.538,-28 445.538,-28 445.538,-22 451.538,-16 457.538,-16"/>
<text text-anchor="middle" x="546.849" y="-244.2" font-family="Times,serif" font-size="11.00" fill="gray">Bobbyshaw</text>
</g>
<g id="clust3" class="cluster"><title>cluster_\Bobbyshaw\WatsonVisualRecognition</title>
<path fill="none" stroke="gray" d="M465.538,-24C465.538,-24 628.16,-24 628.16,-24 634.16,-24 640.16,-30 640.16,-36 640.16,-36 640.16,-218 640.16,-218 640.16,-224 634.16,-230 628.16,-230 628.16,-230 465.538,-230 465.538,-230 459.538,-230 453.538,-224 453.538,-218 453.538,-218 453.538,-36 453.538,-36 453.538,-30 459.538,-24 465.538,-24"/>
<text text-anchor="middle" x="546.849" y="-217.2" font-family="Times,serif" font-size="11.00" fill="gray">WatsonVisualRecognition</text>
</g>
<g id="clust4" class="cluster"><title>cluster_\Bobbyshaw\WatsonVisualRecognition\Commands</title>
<path fill="none" stroke="gray" d="M473.538,-132C473.538,-132 620.16,-132 620.16,-132 626.16,-132 632.16,-138 632.16,-144 632.16,-144 632.16,-191 632.16,-191 632.16,-197 626.16,-203 620.16,-203 620.16,-203 473.538,-203 473.538,-203 467.538,-203 461.538,-197 461.538,-191 461.538,-191 461.538,-144 461.538,-144 461.538,-138 467.538,-132 473.538,-132"/>
<text text-anchor="middle" x="546.849" y="-190.2" font-family="Times,serif" font-size="11.00" fill="gray">Commands</text>
</g>
<!-- \\Bobbyshaw\\WatsonVisualRecognition\\Commands\\GetClassifiersCommand -->
<g id="node1" class="node"><title>\\Bobbyshaw\\WatsonVisualRecognition\\Commands\\GetClassifiersCommand</title>
<polygon fill="none" stroke="black" points="623.972,-176 469.726,-176 469.726,-140 623.972,-140 623.972,-176"/>
<text text-anchor="middle" x="546.849" y="-154.7" font-family="Courier,monospace" font-size="11.00">GetClassifiersCommand</text>
</g>
<!-- \\Symfony\\Component\\Console\\Command\\Command -->
<g id="node4" class="node"><title>\\Symfony\\Component\\Console\\Command\\Command</title>
<ellipse fill="none" stroke="black" cx="198.769" cy="-158" rx="198.538" ry="18"/>
<text text-anchor="middle" x="198.769" y="-153.8" font-family="Times,serif" font-size="14.00" fill="gray">\Symfony\Component\Console\Command\Command</text>
</g>
<!-- \\Bobbyshaw\\WatsonVisualRecognition\\Commands\\GetClassifiersCommand&#45;&gt;\\Symfony\\Component\\Console\\Command\\Command -->
<g id="edge1" class="edge"><title>\\Bobbyshaw\\WatsonVisualRecognition\\Commands\\GetClassifiersCommand&#45;&gt;\\Symfony\\Component\\Console\\Command\\Command</title>
<path fill="none" stroke="black" d="M469.472,-158C450.656,-158 429.596,-158 407.76,-158"/>
<polygon fill="none" stroke="black" points="407.679,-154.5 397.679,-158 407.679,-161.5 407.679,-154.5"/>
</g>
<!-- \\Bobbyshaw\\WatsonVisualRecognition\\Classifier -->
<g id="node2" class="node"><title>\\Bobbyshaw\\WatsonVisualRecognition\\Classifier</title>
<polygon fill="none" stroke="black" points="587.86,-122 505.838,-122 505.838,-86 587.86,-86 587.86,-122"/>
<text text-anchor="middle" x="546.849" y="-100.7" font-family="Courier,monospace" font-size="11.00">Classifier</text>
</g>
<!-- \\Bobbyshaw\\WatsonVisualRecognition\\Client -->
<g id="node3" class="node"><title>\\Bobbyshaw\\WatsonVisualRecognition\\Client</title>
<polygon fill="none" stroke="black" points="574.457,-68 519.241,-68 519.241,-32 574.457,-32 574.457,-68"/>
<text text-anchor="middle" x="546.849" y="-46.7" font-family="Courier,monospace" font-size="11.00">Client</text>
</g>
</g>
</svg>
