<?xml version="1.0" encoding="UTF-8" standalone="no"?>
<!DOCTYPE svg PUBLIC "-//W3C//DTD SVG 1.1//EN"
 "http://www.w3.org/Graphics/SVG/1.1/DTD/svg11.dtd">
<!-- Generated by graphviz version 2.38.0 (20140413.2041)
 -->
<!-- Title: G Pages: 1 -->
<svg width="672pt" height="354pt"
 viewBox="0.00 0.00 672.16 354.00" xmlns="http://www.w3.org/2000/svg" xmlns:xlink="http://www.w3.org/1999/xlink">
<g id="graph0" class="graph" transform="scale(1 1) rotate(0) translate(4 350)">
<title>G</title>
<polygon fill="white" stroke="none" points="-4,4 -4,-350 668.16,-350 668.16,4 -4,4"/>
<g id="clust1" class="cluster"><title>cluster_Global</title>
<path fill="none" stroke="gray" d="M449.538,-8C449.538,-8 644.16,-8 644.16,-8 650.16,-8 656.16,-14 656.16,-20 656.16,-20 656.16,-326 656.16,-326 656.16,-332 650.16,-338 644.16,-338 644.16,-338 449.538,-338 449.538,-338 443.538,-338 437.538,-332 437.538,-326 437.538,-326 437.538,-20 437.538,-20 437.538,-14 443.538,-8 449.538,-8"/>
<text text-anchor="middle" x="546.849" y="-325.2" font-family="Times,serif" font-size="11.00" fill="gray">Global</text>
</g>
<g id="clust2" class="cluster"><title>cluster_\Bobbyshaw</title>
<path fill="none" stroke="gray" d="M457.538,-16C457.538,-16 636.16,-16 636.16,-16 642.16,-16 648.16,-22 648.16,-28 648.16,-28 648.16,-299 648.16,-299 648.16,-305 642.16,-311 636.16,-311 636.16,-311 457.538,-311 457.538,-311 451.538,-311 445.538,-305 445.538,-299 445.538,-299 445.538,-28 445.538,-28 445.538,-22 451.538,-16 457.538,-16"/>
<text text-anchor="middle" x="546.849" y="-298.2" font-family="Times,serif" font-size="11.00" fill="gray">Bobbyshaw</text>
</g>
<g id="clust3" class="cluster"><title>cluster_\Bobbyshaw\WatsonVisualRecognition</title>
<path fill="none" stroke="gray" d="M465.538,-24C465.538,-24 628.16,-24 628.16,-24 634.16,-24 640.16,-30 640.16,-36 640.16,-36 640.16,-272 640.16,-272 640.16,-278 634.16,-284 628.16,-284 628.16,-284 465.538,-284 465.538,-284 459.538,-284 453.538,-278 453.538,-272 453.538,-272 453.538,-36 453.538,-36 453.538,-30 459.538,-24 465.538,-24"/>
<text text-anchor="middle" x="546.849" y="-271.2" font-family="Times,serif" font-size="11.00" fill="gray">WatsonVisualRecognition</text>
</g>
<g id="clust4" class="cluster"><title>cluster_\Bobbyshaw\WatsonVisualRecognition\Commands</title>
<path fill="none" stroke="gray" d="M473.538,-132C473.538,-132 620.16,-132 620.16,-132 626.16,-132 632.16,-138 632.16,-144 632.16,-144 632.16,-245 632.16,-245 632.16,-251 626.16,-257 620.16,-257 620.16,-257 473.538,-257 473.538,-257 467.538,-257 461.538,-251 461.538,-245 461.538,-245 461.538,-144 461.538,-144 461.538,-138 467.538,-132 473.538,-132"/>
<text text-anchor="middle" x="546.849" y="-244.2" font-family="Times,serif" font-size="11.00" fill="gray">Commands</text>
</g>
<!-- \\Bobbyshaw\\WatsonVisualRecognition\\Commands\\AddClassifierCommand -->
<g id="node1" class="node"><title>\\Bobbyshaw\\WatsonVisualRecognition\\Commands\\AddClassifierCommand</title>
<polygon fill="none" stroke="black" points="620.871,-230 472.828,-230 472.828,-194 620.871,-194 620.871,-230"/>
<text text-anchor="middle" x="546.849" y="-208.7" font-family="Courier,monospace" font-size="11.00">AddClassifierCommand</text>
</g>
<!-- \\Symfony\\Component\\Console\\Command\\Command -->
<g id="node5" class="node"><title>\\Symfony\\Component\\Console\\Command\\Command</title>
<ellipse fill="none" stroke="black" cx="198.769" cy="-185" rx="198.538" ry="18"/>
<text text-anchor="middle" x="198.769" y="-180.8" font-family="Times,serif" font-size="14.00" fill="gray">\Symfony\Component\Console\Command\Command</text>
</g>
<!-- \\Bobbyshaw\\WatsonVisualRecognition\\Commands\\AddClassifierCommand&#45;&gt;\\Symfony\\Component\\Console\\Command\\Command -->
<g id="edge1" class="edge"><title>\\Bobbyshaw\\WatsonVisualRecognition\\Commands\\AddClassifierCommand&#45;&gt;\\Symfony\\Component\\Console\\Command\\Command</title>
<path fill="none" stroke="black" d="M472.454,-206.274C439.53,-203.705 399.304,-200.567 359.968,-197.498"/>
<polygon fill="none" stroke="black" points="360.234,-194.008 349.992,-196.72 359.689,-200.987 360.234,-194.008"/>
</g>
<!-- \\Bobbyshaw\\WatsonVisualRecognition\\Commands\\GetClassifiersCommand -->
<g id="node2" class="node"><title>\\Bobbyshaw\\WatsonVisualRecognition\\Commands\\GetClassifiersCommand</title>
<polygon fill="none" stroke="black" points="623.972,-176 469.726,-176 469.726,-140 623.972,-140 623.972,-176"/>
<text text-anchor="middle" x="546.849" y="-154.7" font-family="Courier,monospace" font-size="11.00">GetClassifiersCommand</text>
</g>
<!-- \\Bobbyshaw\\WatsonVisualRecognition\\Commands\\GetClassifiersCommand&#45;&gt;\\Symfony\\Component\\Console\\Command\\Command -->
<g id="edge2" class="edge"><title>\\Bobbyshaw\\WatsonVisualRecognition\\Commands\\GetClassifiersCommand&#45;&gt;\\Symfony\\Component\\Console\\Command\\Command</title>
<path fill="none" stroke="black" d="M469.472,-163.959C437.129,-166.482 398.153,-169.523 360.01,-172.499"/>
<polygon fill="none" stroke="black" points="359.508,-169.027 349.81,-173.294 360.052,-176.006 359.508,-169.027"/>
</g>
<!-- \\Bobbyshaw\\WatsonVisualRecognition\\Classifier -->
<g id="node3" class="node"><title>\\Bobbyshaw\\WatsonVisualRecognition\\Classifier</title>
<polygon fill="none" stroke="black" points="587.86,-122 505.838,-122 505.838,-86 587.86,-86 587.86,-122"/>
<text text-anchor="middle" x="546.849" y="-100.7" font-family="Courier,monospace" font-size="11.00">Classifier</text>
</g>
<!-- \\Bobbyshaw\\WatsonVisualRecognition\\Client -->
<g id="node4" class="node"><title>\\Bobbyshaw\\WatsonVisualRecognition\\Client</title>
<polygon fill="none" stroke="black" points="574.457,-68 519.241,-68 519.241,-32 574.457,-32 574.457,-68"/>
<text text-anchor="middle" x="546.849" y="-46.7" font-family="Courier,monospace" font-size="11.00">Client</text>
</g>
</g>
</svg>
